<svg id="레이어_1" data-name="레이어 1" xmlns="http://www.w3.org/2000/svg" viewBox="0 0 815.64 180.67"><defs><style>.cls-1{fill:#fff;stroke:#f8b62d;stroke-width:10px;}.cls-1,.cls-2{stroke-miterlimit:10;}.cls-2,.cls-3,.cls-4,.cls-5{fill:#f39800;}.cls-2{stroke:#f39800;stroke-width:2px;}.cls-4,.cls-5{font-size:154.74px;font-family:Bauhaus93, "Bauhaus 93";}.cls-4{letter-spacing:-0.03em;}.cls-5{letter-spacing:-0.03em;}.cls-6{fill:#f8b62d;}</style></defs><rect class="cls-1" x="5" y="11.85" width="113.22" height="142.2" rx="6.53"/><rect class="cls-2" x="11.64" y="1" width="8.23" height="21.69" rx="3.62"/><rect class="cls-2" x="103.5" y="1" width="8.23" height="21.69" rx="3.62"/><polyline class="cls-3" points="76.03 104.67 65.69 104.67 91.22 80.33 114.81 104.67 108.44 104.67"/><path class="cls-3" d="M189.48,469.25s-42.48-16-62.77,21.7c-17.79,33-2.92,83.22,43,83.22,29,0,36.47-18.25,36.47-39.83l-27.12-.19A15.21,15.21,0,0,1,181,540.5c0,3-7.07,5.22-11.29,5.22-9.51,0-19.92-9.8-19.92-25.43s12.83-34.19,39.68-22Z" transform="translate(-102.79 -432.18)"/><text class="cls-4" transform="translate(124.5 141.15)">azha </text><text class="cls-5" transform="translate(568.47 141.99)">ote </text><path class="cls-3" d="M595.32,498.48v75.69H626V505.25c0-5.74,2.23-9.88,6.5-9.88s6.72,1.54,6.72,9.88v68.92H669.9l.22-77.26a31,31,0,0,0-13-25.88H610C600.94,477.76,595.32,488.18,595.32,498.48Z" transform="translate(-102.79 -432.18)"/><rect class="cls-6" x="130.67" y="12.03" width="553.67" height="21.32"/><polygon class="cls-6" points="731.71 25.52 689.82 33.35 689.82 12.03 731.51 19.82 731.71 25.52"/><path class="cls-6" d="M837.71,457.54h18.51a2.27,2.27,0,0,0,2.15-2.36v-.62a2.27,2.27,0,0,0-2.15-2.35H837.71Z" transform="translate(-102.79 -432.18)"/></svg>